<svg xmlns="http://www.w3.org/2000/svg" xmlns:xlink="http://www.w3.org/1999/xlink" width="245pt" height="104pt" viewBox="0 0 245 104"><g id="graph0" class="graph" transform="scale(1 1) rotate(0) translate(4 100)"><title>WFSA</title><polygon fill="#fff" stroke="transparent" points="-4 4 -4 -100 241 -100 241 4 -4 4"/><text x="118.5" y="-7.8" fill="#000" font-family="Times,serif" font-size="14" text-anchor="middle">a_fsa</text><g id="node1" class="node"><title>0</title><ellipse cx="18" cy="-45" fill="none" stroke="#000" stroke-width="2" rx="18" ry="18"/><text x="18" y="-41.3" fill="#000" font-family="Times,serif" font-size="14" text-anchor="middle">0</text></g><g id="node2" class="node"><title>1</title><ellipse cx="112" cy="-45" fill="none" stroke="#000" stroke-width="2" rx="18" ry="18"/><text x="112" y="-41.3" fill="#000" font-family="Times,serif" font-size="14" text-anchor="middle">1</text></g><g id="edge1" class="edge"><title>0-&gt;1</title><path fill="none" stroke="#000" d="M36.1241,-45C49.6484,-45 68.3808,-45 83.8486,-45"/><polygon fill="#000" stroke="#000" points="83.931 -48.5 93.931 -45 83.931 -41.5 83.931 -48.5"/><text x="65" y="-48.8" fill="#000" font-family="Times,serif" font-size="14" text-anchor="middle">0/0.1</text></g><g id="edge2" class="edge"><title>0-&gt;1</title><path fill="none" stroke="#000" d="M32.7129,-34.3344C38.1808,-30.9798 44.6133,-27.7072 51,-26 63.0223,-22.7863 66.9777,-22.7863 79,-26 82.1933,-26.8536 85.3981,-28.0986 88.4881,-29.5494"/><polygon fill="#000" stroke="#000" points="86.83 -32.632 97.287 -34.334 90.174 -26.482 86.83 -32.632"/><text x="65" y="-29.8" fill="#000" font-family="Times,serif" font-size="14" text-anchor="middle">1/0.2</text></g><g id="edge3" class="edge"><title>1-&gt;1</title><path fill="none" stroke="#000" d="M103.9836,-61.2903C102.0505,-71.3892 104.7227,-81 112,-81 116.662,-81 119.4341,-77.0557 120.3162,-71.5656"/><polygon fill="#000" stroke="#000" points="123.807 -71.184 120.016 -61.29 116.81 -71.388 123.807 -71.184"/><text x="112" y="-84.8" fill="#000" font-family="Times,serif" font-size="14" text-anchor="middle">2/0.3</text></g><g id="node3" class="node"><title>2</title><ellipse cx="215" cy="-45" fill="none" stroke="#000" stroke-width="2" rx="18" ry="18"/><ellipse cx="215" cy="-45" fill="none" stroke="#000" stroke-width="2" rx="22" ry="22"/><text x="215" y="-41.3" fill="#000" font-family="Times,serif" font-size="14" text-anchor="middle">2</text></g><g id="edge4" class="edge"><title>1-&gt;2</title><path fill="none" stroke="#000" d="M130.4143,-45C144.8858,-45 165.4016,-45 182.604,-45"/><polygon fill="#000" stroke="#000" points="182.803 -48.5 192.803 -45 182.803 -41.5 182.803 -48.5"/><text x="161.5" y="-48.8" fill="#000" font-family="Times,serif" font-size="14" text-anchor="middle">-1/0.4</text></g></g></svg>