<svg xmlns="http://www.w3.org/2000/svg" xmlns:xlink="http://www.w3.org/1999/xlink" width="504" height="100" viewBox="0 0 378 75"><g id="graph0" class="graph" transform="scale(1 1) rotate(0) translate(4 71)"><title>WFST</title><polygon fill="#fff" stroke="transparent" points="-4 4 -4 -71 374 -71 374 4 -4 4"/><text x="185" y="-7.8" fill="#000" font-family="Times,serif" font-size="14" text-anchor="middle">after invert</text><g id="node1" class="node"><title>0</title><ellipse cx="18" cy="-45" fill="none" stroke="#000" stroke-width="2" rx="18" ry="18"/><text x="18" y="-41.3" fill="#000" font-family="Times,serif" font-size="14" text-anchor="middle">0</text></g><g id="node2" class="node"><title>1</title><ellipse cx="130" cy="-45" fill="none" stroke="#000" stroke-width="2" rx="18" ry="18"/><text x="130" y="-41.3" fill="#000" font-family="Times,serif" font-size="14" text-anchor="middle">1</text></g><g id="edge1" class="edge"><title>0-&gt;1</title><path fill="none" stroke="#000" d="M36.4945,-45C54.2718,-45 81.3816,-45 101.8413,-45"/><polygon fill="#000" stroke="#000" points="101.85 -48.5 111.85 -45 101.85 -41.5 101.85 -48.5"/><text x="74" y="-48.8" fill="#000" font-family="Times,serif" font-size="14" text-anchor="middle">10:2/0.1</text></g><g id="node3" class="node"><title>2</title><ellipse cx="230" cy="-45" fill="none" stroke="#000" stroke-width="2" rx="18" ry="18"/><text x="230" y="-41.3" fill="#000" font-family="Times,serif" font-size="14" text-anchor="middle">2</text></g><g id="edge2" class="edge"><title>1-&gt;2</title><path fill="none" stroke="#000" d="M148.3415,-45C163.2836,-45 184.6335,-45 201.7554,-45"/><polygon fill="#000" stroke="#000" points="201.775 -48.5 211.775 -45 201.775 -41.5 201.775 -48.5"/><text x="180" y="-48.8" fill="#000" font-family="Times,serif" font-size="14" text-anchor="middle">20:ε/0</text></g><g id="node4" class="node"><title>3</title><ellipse cx="348" cy="-45" fill="none" stroke="#000" stroke-width="2" rx="18" ry="18"/><ellipse cx="348" cy="-45" fill="none" stroke="#000" stroke-width="2" rx="22" ry="22"/><text x="348" y="-41.3" fill="#000" font-family="Times,serif" font-size="14" text-anchor="middle">3</text></g><g id="edge3" class="edge"><title>2-&gt;3</title><path fill="none" stroke="#000" d="M248.1789,-45C266.1794,-45 294.1232,-45 315.8719,-45"/><polygon fill="#000" stroke="#000" points="315.98 -48.5 325.98 -45 315.98 -41.5 315.98 -48.5"/><text x="287" y="-48.8" fill="#000" font-family="Times,serif" font-size="14" text-anchor="middle">-1:-1/0.2</text></g></g></svg>