<svg xmlns="http://www.w3.org/2000/svg" xmlns:xlink="http://www.w3.org/1999/xlink" width="278pt" height="100" viewBox="0 0 278 75"><g id="graph0" class="graph" transform="scale(1 1) rotate(0) translate(4 71)"><title>WFST</title><polygon fill="#fff" stroke="transparent" points="-4 4 -4 -71 274 -71 274 4 -4 4"/><text x="135" y="-7.8" fill="#000" font-family="Times,serif" font-size="14" text-anchor="middle">after invert</text><g id="node1" class="node"><title>0</title><ellipse cx="18" cy="-45" fill="none" stroke="#000" stroke-width="2" rx="18" ry="18"/><text x="18" y="-41.3" fill="#000" font-family="Times,serif" font-size="14" text-anchor="middle">0</text></g><g id="node2" class="node"><title>1</title><ellipse cx="130" cy="-45" fill="none" stroke="#000" stroke-width="2" rx="18" ry="18"/><text x="130" y="-41.3" fill="#000" font-family="Times,serif" font-size="14" text-anchor="middle">1</text></g><g id="edge1" class="edge"><title>0-&gt;1</title><path fill="none" stroke="#000" d="M36.4945,-45C54.2718,-45 81.3816,-45 101.8413,-45"/><polygon fill="#000" stroke="#000" points="101.85 -48.5 111.85 -45 101.85 -41.5 101.85 -48.5"/><text x="74" y="-48.8" fill="#000" font-family="Times,serif" font-size="14" text-anchor="middle">10:2/0.1</text></g><g id="node3" class="node"><title>2</title><ellipse cx="248" cy="-45" fill="none" stroke="#000" stroke-width="2" rx="18" ry="18"/><ellipse cx="248" cy="-45" fill="none" stroke="#000" stroke-width="2" rx="22" ry="22"/><text x="248" y="-41.3" fill="#000" font-family="Times,serif" font-size="14" text-anchor="middle">2</text></g><g id="edge2" class="edge"><title>1-&gt;2</title><path fill="none" stroke="#000" d="M148.1789,-45C166.1794,-45 194.1232,-45 215.8719,-45"/><polygon fill="#000" stroke="#000" points="215.98 -48.5 225.98 -45 215.98 -41.5 215.98 -48.5"/><text x="187" y="-48.8" fill="#000" font-family="Times,serif" font-size="14" text-anchor="middle">-1:-1/0.2</text></g></g></svg>