<svg xmlns="http://www.w3.org/2000/svg" xmlns:xlink="http://www.w3.org/1999/xlink" width="245pt" height="106pt" viewBox="0 0 245 106"><g id="graph0" class="graph" transform="scale(1 1) rotate(0) translate(4 102)"><title>WFSA</title><polygon fill="#fff" stroke="transparent" points="-4 4 -4 -102 241 -102 241 4 -4 4"/><text x="118.5" y="-7.8" fill="#000" font-family="Times,serif" font-size="14" text-anchor="middle">after sort</text><g id="node1" class="node"><title>0</title><ellipse cx="18" cy="-62" fill="none" stroke="#000" stroke-width="2" rx="18" ry="18"/><text x="18" y="-58.3" fill="#000" font-family="Times,serif" font-size="14" text-anchor="middle">0</text></g><g id="node2" class="node"><title>1</title><ellipse cx="112" cy="-80" fill="none" stroke="#000" stroke-width="2" rx="18" ry="18"/><text x="112" y="-76.3" fill="#000" font-family="Times,serif" font-size="14" text-anchor="middle">1</text></g><g id="edge1" class="edge"><title>0-&gt;1</title><path fill="none" stroke="#000" d="M33.6046,-71.2201C38.9418,-73.9182 45.0659,-76.5345 51,-78 61.4597,-80.5831 73.2337,-81.4298 83.6278,-81.5119"/><polygon fill="#000" stroke="#000" points="83.9 -85.008 93.847 -81.361 83.797 -78.009 83.9 -85.008"/><text x="65" y="-84.8" fill="#000" font-family="Times,serif" font-size="14" text-anchor="middle">1/0.3</text></g><g id="edge2" class="edge"><title>0-&gt;1</title><path fill="none" stroke="#000" d="M35.7109,-58.1108C48.0818,-56.1179 64.8495,-54.8794 79,-59 82.4291,-59.9986 85.8421,-61.4732 89.1008,-63.1861"/><polygon fill="#000" stroke="#000" points="87.398 -66.247 97.762 -68.447 91.032 -60.264 87.398 -66.247"/><text x="65" y="-62.8" fill="#000" font-family="Times,serif" font-size="14" text-anchor="middle">2/0.2</text></g><g id="node3" class="node"><title>2</title><ellipse cx="215" cy="-45" fill="none" stroke="#000" stroke-width="2" rx="18" ry="18"/><ellipse cx="215" cy="-45" fill="none" stroke="#000" stroke-width="2" rx="22" ry="22"/><text x="215" y="-41.3" fill="#000" font-family="Times,serif" font-size="14" text-anchor="middle">2</text></g><g id="edge3" class="edge"><title>0-&gt;2</title><path fill="none" stroke="#000" d="M34.8476,-55.0372C50.0168,-49.1679 73.0769,-41.2251 94,-38 123.8908,-33.3925 158.3594,-36.1653 182.8431,-39.4835"/><polygon fill="#000" stroke="#000" points="182.608 -42.986 193.009 -40.97 183.621 -36.06 182.608 -42.986"/><text x="112" y="-41.8" fill="#000" font-family="Times,serif" font-size="14" text-anchor="middle">-1/0</text></g><g id="edge4" class="edge"><title>1-&gt;2</title><path fill="none" stroke="#000" d="M129.4725,-74.0627C144.485,-68.9614 166.4799,-61.4874 184.4052,-55.3963"/><polygon fill="#000" stroke="#000" points="185.533 -58.71 193.875 -52.178 183.28 -52.082 185.533 -58.71"/><text x="161.5" y="-71.8" fill="#000" font-family="Times,serif" font-size="14" text-anchor="middle">-1/0.4</text></g></g></svg>