<svg xmlns="http://www.w3.org/2000/svg" xmlns:xlink="http://www.w3.org/1999/xlink" width="224pt" height="100" viewBox="0 0 224 75"><g id="graph0" class="graph" transform="scale(1 1) rotate(0) translate(4 71)"><title>WFSA</title><polygon fill="#fff" stroke="transparent" points="-4 4 -4 -71 220 -71 220 4 -4 4"/><text x="108" y="-7.8" fill="#000" font-family="Times,serif" font-size="14" text-anchor="middle">b_fsa</text><g id="node1" class="node"><title>0</title><ellipse cx="18" cy="-45" fill="none" stroke="#000" stroke-width="2" rx="18" ry="18"/><text x="18" y="-41.3" fill="#000" font-family="Times,serif" font-size="14" text-anchor="middle">0</text></g><g id="node2" class="node"><title>1</title><ellipse cx="102" cy="-45" fill="none" stroke="#000" stroke-width="2" rx="18" ry="18"/><text x="102" y="-41.3" fill="#000" font-family="Times,serif" font-size="14" text-anchor="middle">1</text></g><g id="edge1" class="edge"><title>0-&gt;1</title><path fill="none" stroke="#000" d="M36.2267,-45C47.1242,-45 61.2054,-45 73.5413,-45"/><polygon fill="#000" stroke="#000" points="73.809 -48.5 83.809 -45 73.809 -41.5 73.809 -48.5"/><text x="60" y="-48.8" fill="#000" font-family="Times,serif" font-size="14" text-anchor="middle">1/1</text></g><g id="edge2" class="edge"><title>0-&gt;1</title><path fill="none" stroke="#000" d="M32.7129,-34.3344C38.1808,-30.9798 44.6133,-27.7072 51,-26 58.7286,-23.9341 61.2714,-23.9341 69,-26 72.1933,-26.8536 75.3981,-28.0986 78.4881,-29.5494"/><polygon fill="#000" stroke="#000" points="76.83 -32.632 87.287 -34.334 80.174 -26.482 76.83 -32.632"/><text x="60" y="-29.8" fill="#000" font-family="Times,serif" font-size="14" text-anchor="middle">2/2</text></g><g id="node3" class="node"><title>2</title><ellipse cx="194" cy="-45" fill="none" stroke="#000" stroke-width="2" rx="18" ry="18"/><ellipse cx="194" cy="-45" fill="none" stroke="#000" stroke-width="2" rx="22" ry="22"/><text x="194" y="-41.3" fill="#000" font-family="Times,serif" font-size="14" text-anchor="middle">2</text></g><g id="edge3" class="edge"><title>1-&gt;2</title><path fill="none" stroke="#000" d="M120.1762,-45C132.0274,-45 147.8254,-45 161.7655,-45"/><polygon fill="#000" stroke="#000" points="161.967 -48.5 171.967 -45 161.967 -41.5 161.967 -48.5"/><text x="146" y="-48.8" fill="#000" font-family="Times,serif" font-size="14" text-anchor="middle">-1/3</text></g></g></svg>