<svg xmlns="http://www.w3.org/2000/svg" xmlns:xlink="http://www.w3.org/1999/xlink" width="295pt" height="100" viewBox="0 0 295 75"><g id="graph0" class="graph" transform="scale(1 1) rotate(0) translate(4 71)"><title>WFST</title><polygon fill="#fff" stroke="transparent" points="-4 4 -4 -71 291 -71 291 4 -4 4"/><text x="143.5" y="-7.8" fill="#000" font-family="Times,serif" font-size="14" text-anchor="middle">before invert with ragged tensors as aux_labels</text><g id="node1" class="node"><title>0</title><ellipse cx="18" cy="-45" fill="none" stroke="#000" stroke-width="2" rx="18" ry="18"/><text x="18" y="-41.3" fill="#000" font-family="Times,serif" font-size="14" text-anchor="middle">0</text></g><g id="node2" class="node"><title>1</title><ellipse cx="147" cy="-45" fill="none" stroke="#000" stroke-width="2" rx="18" ry="18"/><text x="147" y="-41.3" fill="#000" font-family="Times,serif" font-size="14" text-anchor="middle">1</text></g><g id="edge1" class="edge"><title>0-&gt;1</title><path fill="none" stroke="#000" d="M36.2089,-45C57.7214,-45 93.7543,-45 118.8649,-45"/><polygon fill="#000" stroke="#000" points="118.884 -48.5 128.884 -45 118.884 -41.5 118.884 -48.5"/><text x="82.5" y="-48.8" fill="#000" font-family="Times,serif" font-size="14" text-anchor="middle">2:10 20/0.1</text></g><g id="node3" class="node"><title>2</title><ellipse cx="265" cy="-45" fill="none" stroke="#000" stroke-width="2" rx="18" ry="18"/><ellipse cx="265" cy="-45" fill="none" stroke="#000" stroke-width="2" rx="22" ry="22"/><text x="265" y="-41.3" fill="#000" font-family="Times,serif" font-size="14" text-anchor="middle">2</text></g><g id="edge2" class="edge"><title>1-&gt;2</title><path fill="none" stroke="#000" d="M165.1789,-45C183.1794,-45 211.1232,-45 232.8719,-45"/><polygon fill="#000" stroke="#000" points="232.98 -48.5 242.98 -45 232.98 -41.5 232.98 -48.5"/><text x="204" y="-48.8" fill="#000" font-family="Times,serif" font-size="14" text-anchor="middle">-1:-1/0.2</text></g></g></svg>