<svg xmlns="http://www.w3.org/2000/svg" xmlns:xlink="http://www.w3.org/1999/xlink" width="245pt" height="125pt" viewBox="0 0 245 125"><g id="graph0" class="graph" transform="scale(1 1) rotate(0) translate(4 121)"><title>WFSA</title><polygon fill="#fff" stroke="transparent" points="-4 4 -4 -121 241 -121 241 4 -4 4"/><text x="118.5" y="-7.8" fill="#000" font-family="Times,serif" font-size="14" text-anchor="middle">intersect(a_fsa, b_fsa)</text><g id="node1" class="node"><title>0</title><ellipse cx="18" cy="-72" fill="none" stroke="#000" stroke-width="2" rx="18" ry="18"/><text x="18" y="-68.3" fill="#000" font-family="Times,serif" font-size="14" text-anchor="middle">0</text></g><g id="node2" class="node"><title>1</title><ellipse cx="112" cy="-99" fill="none" stroke="#000" stroke-width="2" rx="18" ry="18"/><text x="112" y="-95.3" fill="#000" font-family="Times,serif" font-size="14" text-anchor="middle">1</text></g><g id="edge1" class="edge"><title>0-&gt;1</title><path fill="none" stroke="#000" d="M35.6807,-77.0785C49.4666,-81.0383 68.8559,-86.6076 84.6411,-91.1416"/><polygon fill="#000" stroke="#000" points="83.821 -94.547 94.399 -93.944 85.754 -87.82 83.821 -94.547"/><text x="65" y="-92.8" fill="#000" font-family="Times,serif" font-size="14" text-anchor="middle">1/1.1</text></g><g id="node3" class="node"><title>2</title><ellipse cx="112" cy="-45" fill="none" stroke="#000" stroke-width="2" rx="18" ry="18"/><text x="112" y="-41.3" fill="#000" font-family="Times,serif" font-size="14" text-anchor="middle">2</text></g><g id="edge2" class="edge"><title>0-&gt;2</title><path fill="none" stroke="#000" d="M35.4471,-66.6332C40.4613,-65.1125 45.9415,-63.4711 51,-62 62.0051,-58.7995 74.163,-55.3865 84.7096,-52.4648"/><polygon fill="#000" stroke="#000" points="85.907 -55.765 94.617 -49.733 84.046 -49.017 85.907 -55.765"/><text x="65" y="-65.8" fill="#000" font-family="Times,serif" font-size="14" text-anchor="middle">2/2.2</text></g><g id="node4" class="node"><title>3</title><ellipse cx="215" cy="-45" fill="none" stroke="#000" stroke-width="2" rx="18" ry="18"/><ellipse cx="215" cy="-45" fill="none" stroke="#000" stroke-width="2" rx="22" ry="22"/><text x="215" y="-41.3" fill="#000" font-family="Times,serif" font-size="14" text-anchor="middle">3</text></g><g id="edge3" class="edge"><title>2-&gt;3</title><path fill="none" stroke="#000" d="M130.4143,-45C144.8858,-45 165.4016,-45 182.604,-45"/><polygon fill="#000" stroke="#000" points="182.803 -48.5 192.803 -45 182.803 -41.5 182.803 -48.5"/><text x="161.5" y="-48.8" fill="#000" font-family="Times,serif" font-size="14" text-anchor="middle">-1/3.3</text></g></g></svg>