<svg xmlns="http://www.w3.org/2000/svg" xmlns:xlink="http://www.w3.org/1999/xlink" width="245pt" height="103pt" viewBox="0 0 245 103"><g id="graph0" class="graph" transform="scale(1 1) rotate(0) translate(4 99)"><title>WFSA</title><polygon fill="#fff" stroke="transparent" points="-4 4 -4 -99 241 -99 241 4 -4 4"/><text x="118.5" y="-7.8" fill="#000" font-family="Times,serif" font-size="14" text-anchor="middle">before sort</text><g id="node1" class="node"><title>0</title><ellipse cx="18" cy="-65" fill="none" stroke="#000" stroke-width="2" rx="18" ry="18"/><text x="18" y="-61.3" fill="#000" font-family="Times,serif" font-size="14" text-anchor="middle">0</text></g><g id="node2" class="node"><title>2</title><ellipse cx="215" cy="-68" fill="none" stroke="#000" stroke-width="2" rx="18" ry="18"/><ellipse cx="215" cy="-68" fill="none" stroke="#000" stroke-width="2" rx="22" ry="22"/><text x="215" y="-64.3" fill="#000" font-family="Times,serif" font-size="14" text-anchor="middle">2</text></g><g id="edge1" class="edge"><title>0-&gt;2</title><path fill="none" stroke="#000" d="M35.2552,-71.2339C40.2664,-72.7684 45.793,-74.2001 51,-75 106.7916,-83.5712 121.8734,-81.9984 178,-76 179.7522,-75.8127 181.5432,-75.577 183.3456,-75.3048"/><polygon fill="#000" stroke="#000" points="184.394 -78.671 193.604 -73.434 183.139 -71.785 184.394 -78.671"/><text x="112" y="-83.8" fill="#000" font-family="Times,serif" font-size="14" text-anchor="middle">-1/0</text></g><g id="node3" class="node"><title>1</title><ellipse cx="112" cy="-41" fill="none" stroke="#000" stroke-width="2" rx="18" ry="18"/><text x="112" y="-37.3" fill="#000" font-family="Times,serif" font-size="14" text-anchor="middle">1</text></g><g id="edge2" class="edge"><title>0-&gt;1</title><path fill="none" stroke="#000" d="M35.6807,-60.4858C49.4666,-56.966 68.8559,-52.0155 84.6411,-47.9853"/><polygon fill="#000" stroke="#000" points="85.575 -51.359 94.399 -45.494 83.844 -44.577 85.575 -51.359"/><text x="65" y="-59.8" fill="#000" font-family="Times,serif" font-size="14" text-anchor="middle">2/0.2</text></g><g id="edge3" class="edge"><title>0-&gt;1</title><path fill="none" stroke="#000" d="M27.97,-49.5887C33.712,-42.1752 41.6452,-34.037 51,-30 61.9687,-25.2665 74.8956,-26.707 86.0196,-29.857"/><polygon fill="#000" stroke="#000" points="85.026 -33.216 95.621 -33.102 87.268 -26.584 85.026 -33.216"/><text x="65" y="-33.8" fill="#000" font-family="Times,serif" font-size="14" text-anchor="middle">1/0.3</text></g><g id="edge4" class="edge"><title>1-&gt;2</title><path fill="none" stroke="#000" d="M129.4725,-45.5802C144.25,-49.4539 165.7932,-55.1011 183.5606,-59.7586"/><polygon fill="#000" stroke="#000" points="182.945 -63.215 193.506 -62.366 184.72 -56.444 182.945 -63.215"/><text x="161.5" y="-60.8" fill="#000" font-family="Times,serif" font-size="14" text-anchor="middle">-1/0.4</text></g></g></svg>