<svg xmlns="http://www.w3.org/2000/svg" xmlns:xlink="http://www.w3.org/1999/xlink" width="452" height="106pt" viewBox="0 0 339 106"><g id="graph0" class="graph" transform="scale(1 1) rotate(0) translate(4 102)"><title>WFSA</title><polygon fill="#fff" stroke="transparent" points="-4 4 -4 -102 335 -102 335 4 -4 4"/><text x="165.5" y="-7.8" fill="#000" font-family="Times,serif" font-size="14" text-anchor="middle">c_fsa</text><g id="node1" class="node"><title>0</title><ellipse cx="18" cy="-45" fill="none" stroke="#000" stroke-width="2" rx="18" ry="18"/><text x="18" y="-41.3" fill="#000" font-family="Times,serif" font-size="14" text-anchor="middle">0</text></g><g id="node2" class="node"><title>1</title><ellipse cx="112" cy="-80" fill="none" stroke="#000" stroke-width="2" rx="18" ry="18"/><text x="112" y="-76.3" fill="#000" font-family="Times,serif" font-size="14" text-anchor="middle">1</text></g><g id="edge1" class="edge"><title>0-&gt;1</title><path fill="none" stroke="#000" d="M35.241,-51.4195C49.2866,-56.6493 69.3555,-64.1217 85.4501,-70.1144"/><polygon fill="#000" stroke="#000" points="84.275 -73.412 94.868 -73.621 86.718 -66.852 84.275 -73.412"/><text x="65" y="-70.8" fill="#000" font-family="Times,serif" font-size="14" text-anchor="middle">0/0.1</text></g><g id="node3" class="node"><title>2</title><ellipse cx="206" cy="-45" fill="none" stroke="#000" stroke-width="2" rx="18" ry="18"/><text x="206" y="-41.3" fill="#000" font-family="Times,serif" font-size="14" text-anchor="middle">2</text></g><g id="edge2" class="edge"><title>0-&gt;2</title><path fill="none" stroke="#000" d="M36.0876,-42.8628C51.4655,-41.1589 74.1455,-38.9124 94,-38 109.9831,-37.2655 114.0169,-37.2655 130,-38 145.8215,-38.7271 163.4373,-40.3013 177.7225,-41.773"/><polygon fill="#000" stroke="#000" points="177.597 -45.279 187.912 -42.863 178.341 -38.319 177.597 -45.279"/><text x="112" y="-41.8" fill="#000" font-family="Times,serif" font-size="14" text-anchor="middle">1/1.2</text></g><g id="edge3" class="edge"><title>1-&gt;2</title><path fill="none" stroke="#000" d="M129.241,-73.5805C143.2866,-68.3507 163.3555,-60.8783 179.4501,-54.8856"/><polygon fill="#000" stroke="#000" points="180.718 -58.148 188.868 -51.379 178.275 -51.588 180.718 -58.148"/><text x="159" y="-70.8" fill="#000" font-family="Times,serif" font-size="14" text-anchor="middle">2/2.3</text></g><g id="node4" class="node"><title>3</title><ellipse cx="309" cy="-45" fill="none" stroke="#000" stroke-width="2" rx="18" ry="18"/><ellipse cx="309" cy="-45" fill="none" stroke="#000" stroke-width="2" rx="22" ry="22"/><text x="309" y="-41.3" fill="#000" font-family="Times,serif" font-size="14" text-anchor="middle">3</text></g><g id="edge4" class="edge"><title>2-&gt;3</title><path fill="none" stroke="#000" d="M224.4143,-45C238.8858,-45 259.4016,-45 276.604,-45"/><polygon fill="#000" stroke="#000" points="276.803 -48.5 286.803 -45 276.803 -41.5 276.803 -48.5"/><text x="255.5" y="-48.8" fill="#000" font-family="Times,serif" font-size="14" text-anchor="middle">-1/3.4</text></g></g></svg>