<svg xmlns="http://www.w3.org/2000/svg" xmlns:xlink="http://www.w3.org/1999/xlink" width="353pt" height="109pt" viewBox="0 0 353 109"><g id="graph0" class="graph" transform="scale(1 1) rotate(0) translate(4 105)"><title>WFSA</title><polygon fill="#fff" stroke="transparent" points="-4 4 -4 -105 349 -105 349 4 -4 4"/><text x="172.5" y="-7.8" fill="#000" font-family="Times,serif" font-size="14" text-anchor="middle">My first FSA in k2</text><g id="node1" class="node"><title>0</title><ellipse cx="18" cy="-48" fill="none" stroke="#000" stroke-width="2" rx="18" ry="18"/><text x="18" y="-44.3" fill="#000" font-family="Times,serif" font-size="14" text-anchor="middle">0</text></g><g id="node2" class="node"><title>1</title><ellipse cx="119" cy="-83" fill="none" stroke="#000" stroke-width="2" rx="18" ry="18"/><text x="119" y="-79.3" fill="#000" font-family="Times,serif" font-size="14" text-anchor="middle">1</text></g><g id="edge1" class="edge"><title>0-&gt;1</title><path fill="none" stroke="#000" d="M35.1333,-53.9373C50.7314,-59.3426 74.0168,-67.4117 92.0966,-73.677"/><polygon fill="#000" stroke="#000" points="91.188 -77.066 101.783 -77.034 93.48 -70.452 91.188 -77.066"/><text x="68.5" y="-73.8" fill="#000" font-family="Times,serif" font-size="14" text-anchor="middle">10/0.1</text></g><g id="node3" class="node"><title>2</title><ellipse cx="220" cy="-41" fill="none" stroke="#000" stroke-width="2" rx="18" ry="18"/><text x="220" y="-37.3" fill="#000" font-family="Times,serif" font-size="14" text-anchor="middle">2</text></g><g id="edge2" class="edge"><title>0-&gt;2</title><path fill="none" stroke="#000" d="M36.1064,-46.0312C52.9021,-44.31 78.6055,-41.9427 101,-41 131.967,-39.6965 167.5071,-39.9208 191.6253,-40.3298"/><polygon fill="#000" stroke="#000" points="191.78 -43.833 201.845 -40.526 191.915 -36.835 191.78 -43.833"/><text x="119" y="-44.8" fill="#000" font-family="Times,serif" font-size="14" text-anchor="middle">20/0.2</text></g><g id="edge3" class="edge"><title>1-&gt;2</title><path fill="none" stroke="#000" d="M134.9208,-74.2955C140.2791,-71.5017 146.3358,-68.4888 152,-66 165.3571,-60.1309 180.5702,-54.448 193.2152,-49.9874"/><polygon fill="#000" stroke="#000" points="194.419 -53.274 202.721 -46.692 192.126 -46.66 194.419 -53.274"/><text x="169.5" y="-69.8" fill="#000" font-family="Times,serif" font-size="14" text-anchor="middle">30/0.3</text></g><g id="node4" class="node"><title>3</title><ellipse cx="323" cy="-68" fill="none" stroke="#000" stroke-width="2" rx="18" ry="18"/><ellipse cx="323" cy="-68" fill="none" stroke="#000" stroke-width="2" rx="22" ry="22"/><text x="323" y="-64.3" fill="#000" font-family="Times,serif" font-size="14" text-anchor="middle">3</text></g><g id="edge4" class="edge"><title>1-&gt;3</title><path fill="none" stroke="#000" d="M137.1322,-83.3016C167.8927,-83.5765 232.2053,-83.126 286,-76 287.7469,-75.7686 289.5337,-75.4979 291.3329,-75.1987"/><polygon fill="#000" stroke="#000" points="292.413 -78.556 301.582 -73.248 291.104 -71.68 292.413 -78.556"/><text x="220" y="-85.8" fill="#000" font-family="Times,serif" font-size="14" text-anchor="middle">-1/0.4</text></g><g id="edge5" class="edge"><title>2-&gt;3</title><path fill="none" stroke="#000" d="M237.4725,-45.5802C252.25,-49.4539 273.7932,-55.1011 291.5606,-59.7586"/><polygon fill="#000" stroke="#000" points="290.945 -63.215 301.506 -62.366 292.72 -56.444 290.945 -63.215"/><text x="269.5" y="-60.8" fill="#000" font-family="Times,serif" font-size="14" text-anchor="middle">-1/0.5</text></g></g></svg>