<svg xmlns="http://www.w3.org/2000/svg" xmlns:xlink="http://www.w3.org/1999/xlink" width="403pt" height="109pt" viewBox="0 0 403 109"><g id="graph0" class="graph" transform="scale(1 1) rotate(0) translate(4 105)"><title>WFST</title><polygon fill="#fff" stroke="transparent" points="-4 4 -4 -105 399 -105 399 4 -4 4"/><text x="197.5" y="-7.8" fill="#000" font-family="Times,serif" font-size="14" text-anchor="middle">An FSA with aux_labels</text><g id="node1" class="node"><title>0</title><ellipse cx="18" cy="-48" fill="none" stroke="#000" stroke-width="2" rx="18" ry="18"/><text x="18" y="-44.3" fill="#000" font-family="Times,serif" font-size="14" text-anchor="middle">0</text></g><g id="node2" class="node"><title>1</title><ellipse cx="130.5" cy="-83" fill="none" stroke="#000" stroke-width="2" rx="18" ry="18"/><text x="130.5" y="-79.3" fill="#000" font-family="Times,serif" font-size="14" text-anchor="middle">1</text></g><g id="edge1" class="edge"><title>0-&gt;1</title><path fill="none" stroke="#000" d="M35.5781,-53.4688C53.741,-59.1194 82.3299,-68.0138 103.3901,-74.5658"/><polygon fill="#000" stroke="#000" points="102.457 -77.941 113.045 -77.57 104.537 -71.257 102.457 -77.941"/><text x="73.5" y="-74.8" fill="#000" font-family="Times,serif" font-size="14" text-anchor="middle">a:10/0.1</text></g><g id="node3" class="node"><title>2</title><ellipse cx="249" cy="-41" fill="none" stroke="#000" stroke-width="2" rx="18" ry="18"/><text x="249" y="-37.3" fill="#000" font-family="Times,serif" font-size="14" text-anchor="middle">2</text></g><g id="edge2" class="edge"><title>0-&gt;2</title><path fill="none" stroke="#000" d="M36.1539,-46.228C54.8824,-44.4953 84.9501,-41.979 111,-41 148.8331,-39.5782 192.5416,-39.9117 220.4564,-40.3752"/><polygon fill="#000" stroke="#000" points="220.625 -43.879 230.687 -40.563 220.753 -36.88 220.625 -43.879"/><text x="130.5" y="-44.8" fill="#000" font-family="Times,serif" font-size="14" text-anchor="middle">b:0/0.2</text></g><g id="edge3" class="edge"><title>1-&gt;2</title><path fill="none" stroke="#000" d="M146.3943,-74.4699C152.159,-71.5637 158.7832,-68.4367 165,-66 183.3607,-58.8034 204.6613,-52.4857 221.2185,-48.0017"/><polygon fill="#000" stroke="#000" points="222.561 -51.267 231.335 -45.329 220.773 -44.499 222.561 -51.267"/><text x="187.5" y="-69.8" fill="#000" font-family="Times,serif" font-size="14" text-anchor="middle">c:30/0.3</text></g><g id="node4" class="node"><title>3</title><ellipse cx="373" cy="-68" fill="none" stroke="#000" stroke-width="2" rx="18" ry="18"/><ellipse cx="373" cy="-68" fill="none" stroke="#000" stroke-width="2" rx="22" ry="22"/><text x="373" y="-64.3" fill="#000" font-family="Times,serif" font-size="14" text-anchor="middle">3</text></g><g id="edge4" class="edge"><title>1-&gt;3</title><path fill="none" stroke="#000" d="M148.4882,-83.9993C184.3718,-85.6769 267.3074,-87.9708 336,-78 337.9261,-77.7204 339.8951,-77.3742 341.8721,-76.9802"/><polygon fill="#000" stroke="#000" points="342.716 -80.377 351.661 -74.699 341.128 -73.56 342.716 -80.377"/><text x="249" y="-88.8" fill="#000" font-family="Times,serif" font-size="14" text-anchor="middle">-1:-1/0.4</text></g><g id="edge5" class="edge"><title>2-&gt;3</title><path fill="none" stroke="#000" d="M266.7662,-44.8684C286.1332,-49.0855 317.5158,-55.9188 341.1608,-61.0673"/><polygon fill="#000" stroke="#000" points="340.57 -64.52 351.086 -63.228 342.059 -57.681 340.57 -64.52"/><text x="312" y="-62.8" fill="#000" font-family="Times,serif" font-size="14" text-anchor="middle">-1:-1/0.5</text></g></g></svg>