<svg xmlns="http://www.w3.org/2000/svg" xmlns:xlink="http://www.w3.org/1999/xlink" width="452" height="109pt" viewBox="0 0 339 109"><g id="graph0" class="graph" transform="scale(1 1) rotate(0) translate(4 105)"><title>WFSA</title><polygon fill="#fff" stroke="transparent" points="-4 4 -4 -105 335 -105 335 4 -4 4"/><text x="165.5" y="-7.8" fill="#000" font-family="Times,serif" font-size="14" text-anchor="middle">An FSA with symbol table</text><g id="node1" class="node"><title>0</title><ellipse cx="18" cy="-48" fill="none" stroke="#000" stroke-width="2" rx="18" ry="18"/><text x="18" y="-44.3" fill="#000" font-family="Times,serif" font-size="14" text-anchor="middle">0</text></g><g id="node2" class="node"><title>1</title><ellipse cx="112" cy="-83" fill="none" stroke="#000" stroke-width="2" rx="18" ry="18"/><text x="112" y="-79.3" fill="#000" font-family="Times,serif" font-size="14" text-anchor="middle">1</text></g><g id="edge1" class="edge"><title>0-&gt;1</title><path fill="none" stroke="#000" d="M35.241,-54.4195C49.2866,-59.6493 69.3555,-67.1217 85.4501,-73.1144"/><polygon fill="#000" stroke="#000" points="84.275 -76.412 94.868 -76.621 86.718 -69.852 84.275 -76.412"/><text x="65" y="-73.8" fill="#000" font-family="Times,serif" font-size="14" text-anchor="middle">a/0.1</text></g><g id="node3" class="node"><title>2</title><ellipse cx="206" cy="-41" fill="none" stroke="#000" stroke-width="2" rx="18" ry="18"/><text x="206" y="-37.3" fill="#000" font-family="Times,serif" font-size="14" text-anchor="middle">2</text></g><g id="edge2" class="edge"><title>0-&gt;2</title><path fill="none" stroke="#000" d="M36.0876,-45.8628C51.4655,-44.1589 74.1455,-41.9124 94,-41 122.3772,-39.6959 154.8414,-39.8803 177.4861,-40.2789"/><polygon fill="#000" stroke="#000" points="177.684 -43.783 187.753 -40.486 177.826 -36.785 177.684 -43.783"/><text x="112" y="-44.8" fill="#000" font-family="Times,serif" font-size="14" text-anchor="middle">b/0.2</text></g><g id="edge3" class="edge"><title>1-&gt;2</title><path fill="none" stroke="#000" d="M127.9754,-74.4167C133.3373,-71.6309 139.3823,-68.5922 145,-66 156.2186,-60.8233 168.8229,-55.5669 179.6493,-51.2186"/><polygon fill="#000" stroke="#000" points="180.996 -54.45 189.001 -47.509 178.415 -47.943 180.996 -54.45"/><text x="159" y="-69.8" fill="#000" font-family="Times,serif" font-size="14" text-anchor="middle">c/0.3</text></g><g id="node4" class="node"><title>3</title><ellipse cx="309" cy="-68" fill="none" stroke="#000" stroke-width="2" rx="18" ry="18"/><ellipse cx="309" cy="-68" fill="none" stroke="#000" stroke-width="2" rx="22" ry="22"/><text x="309" y="-64.3" fill="#000" font-family="Times,serif" font-size="14" text-anchor="middle">3</text></g><g id="edge4" class="edge"><title>1-&gt;3</title><path fill="none" stroke="#000" d="M130.3278,-83.2421C160.1579,-83.4024 221.0074,-82.7548 272,-76 273.7469,-75.7686 275.5337,-75.4979 277.3329,-75.1987"/><polygon fill="#000" stroke="#000" points="278.413 -78.556 287.582 -73.248 277.104 -71.68 278.413 -78.556"/><text x="206" y="-85.8" fill="#000" font-family="Times,serif" font-size="14" text-anchor="middle">-1/0.4</text></g><g id="edge5" class="edge"><title>2-&gt;3</title><path fill="none" stroke="#000" d="M223.4725,-45.5802C238.25,-49.4539 259.7932,-55.1011 277.5606,-59.7586"/><polygon fill="#000" stroke="#000" points="276.945 -63.215 287.506 -62.366 278.72 -56.444 276.945 -63.215"/><text x="255.5" y="-60.8" fill="#000" font-family="Times,serif" font-size="14" text-anchor="middle">-1/0.5</text></g></g></svg>