<svg xmlns="http://www.w3.org/2000/svg" xmlns:xlink="http://www.w3.org/1999/xlink" width="524" height="86pt" viewBox="0 0 393 86"><g id="graph0" class="graph" transform="scale(1 1) rotate(0) translate(4 82)"><title>WFST</title><polygon fill="#fff" stroke="transparent" points="-4 4 -4 -82 389 -82 389 4 -4 4"/><g id="node1" class="node"><title>0</title><ellipse cx="18" cy="-25" fill="none" stroke="#000" stroke-width="2" rx="18" ry="18"/><text x="18" y="-21.3" fill="#000" font-family="Times,serif" font-size="14" text-anchor="middle">0</text></g><g id="node2" class="node"><title>1</title><ellipse cx="126" cy="-60" fill="none" stroke="#000" stroke-width="2" rx="18" ry="18"/><text x="126" y="-56.3" fill="#000" font-family="Times,serif" font-size="14" text-anchor="middle">1</text></g><g id="edge1" class="edge"><title>0-&gt;1</title><path fill="none" stroke="#000" d="M35.3521,-30.6234C52.5144,-36.1852 79.028,-44.7776 98.9552,-51.2355"/><polygon fill="#000" stroke="#000" points="98.099 -54.637 108.691 -54.391 100.257 -47.978 98.099 -54.637"/><text x="71.5" y="-51.8" fill="#000" font-family="Times,serif" font-size="14" text-anchor="middle">A:a/0.1</text></g><g id="node3" class="node"><title>2</title><ellipse cx="239" cy="-18" fill="none" stroke="#000" stroke-width="2" rx="18" ry="18"/><text x="239" y="-14.3" fill="#000" font-family="Times,serif" font-size="14" text-anchor="middle">2</text></g><g id="edge2" class="edge"><title>0-&gt;2</title><path fill="none" stroke="#000" d="M36.044,-23.1631C54.0068,-21.433 82.3754,-18.9669 107,-18 142.6232,-16.6012 183.6958,-16.9025 210.44,-17.3541"/><polygon fill="#000" stroke="#000" points="210.563 -20.857 220.626 -17.545 210.694 -13.858 210.563 -20.857"/><text x="126" y="-21.8" fill="#000" font-family="Times,serif" font-size="14" text-anchor="middle">ε:b/0.2</text></g><g id="edge3" class="edge"><title>1-&gt;2</title><path fill="none" stroke="#000" d="M142.0175,-51.3426C147.6187,-48.49 154.0061,-45.4293 160,-43 176.7903,-36.1949 196.1795,-30.0351 211.5472,-25.5325"/><polygon fill="#000" stroke="#000" points="212.813 -28.811 221.463 -22.692 210.885 -22.081 212.813 -28.811"/><text x="180" y="-46.8" fill="#000" font-family="Times,serif" font-size="14" text-anchor="middle">B:c/0.3</text></g><g id="node4" class="node"><title>3</title><ellipse cx="363" cy="-45" fill="none" stroke="#000" stroke-width="2" rx="18" ry="18"/><ellipse cx="363" cy="-45" fill="none" stroke="#000" stroke-width="2" rx="22" ry="22"/><text x="363" y="-41.3" fill="#000" font-family="Times,serif" font-size="14" text-anchor="middle">3</text></g><g id="edge4" class="edge"><title>1-&gt;3</title><path fill="none" stroke="#000" d="M144.0494,-60.9817C179.2606,-62.5815 259.4918,-64.6765 326,-55 327.926,-54.7198 329.895,-54.373 331.8719,-53.9786"/><polygon fill="#000" stroke="#000" points="332.716 -57.376 341.661 -51.697 331.127 -50.558 332.716 -57.376"/><text x="239" y="-65.8" fill="#000" font-family="Times,serif" font-size="14" text-anchor="middle">-1:-1/0.4</text></g><g id="edge5" class="edge"><title>2-&gt;3</title><path fill="none" stroke="#000" d="M256.7662,-21.8684C276.1332,-26.0855 307.5158,-32.9188 331.1608,-38.0673"/><polygon fill="#000" stroke="#000" points="330.57 -41.52 341.086 -40.228 332.059 -34.681 330.57 -41.52"/><text x="302" y="-39.8" fill="#000" font-family="Times,serif" font-size="14" text-anchor="middle">-1:-1/0.5</text></g></g></svg>