<svg xmlns="http://www.w3.org/2000/svg" xmlns:xlink="http://www.w3.org/1999/xlink" width="524" height="109pt" viewBox="0 0 393 109"><g id="graph0" class="graph" transform="scale(1 1) rotate(0) translate(4 105)"><title>WFST</title><polygon fill="#fff" stroke="transparent" points="-4 4 -4 -105 389 -105 389 4 -4 4"/><text x="192.5" y="-7.8" fill="#000" font-family="Times,serif" font-size="14" text-anchor="middle">An FSA with aux_symbols</text><g id="node1" class="node"><title>0</title><ellipse cx="18" cy="-48" fill="none" stroke="#000" stroke-width="2" rx="18" ry="18"/><text x="18" y="-44.3" fill="#000" font-family="Times,serif" font-size="14" text-anchor="middle">0</text></g><g id="node2" class="node"><title>1</title><ellipse cx="126" cy="-83" fill="none" stroke="#000" stroke-width="2" rx="18" ry="18"/><text x="126" y="-79.3" fill="#000" font-family="Times,serif" font-size="14" text-anchor="middle">1</text></g><g id="edge1" class="edge"><title>0-&gt;1</title><path fill="none" stroke="#000" d="M35.3521,-53.6234C52.5144,-59.1852 79.028,-67.7776 98.9552,-74.2355"/><polygon fill="#000" stroke="#000" points="98.099 -77.637 108.691 -77.391 100.257 -70.978 98.099 -77.637"/><text x="71.5" y="-74.8" fill="#000" font-family="Times,serif" font-size="14" text-anchor="middle">a:A/0.1</text></g><g id="node3" class="node"><title>2</title><ellipse cx="239" cy="-41" fill="none" stroke="#000" stroke-width="2" rx="18" ry="18"/><text x="239" y="-37.3" fill="#000" font-family="Times,serif" font-size="14" text-anchor="middle">2</text></g><g id="edge2" class="edge"><title>0-&gt;2</title><path fill="none" stroke="#000" d="M36.044,-46.1631C54.0068,-44.433 82.3754,-41.9669 107,-41 142.6232,-39.6012 183.6958,-39.9025 210.44,-40.3541"/><polygon fill="#000" stroke="#000" points="210.563 -43.857 220.626 -40.545 210.694 -36.858 210.563 -43.857"/><text x="126" y="-44.8" fill="#000" font-family="Times,serif" font-size="14" text-anchor="middle">b:ε/0.2</text></g><g id="edge3" class="edge"><title>1-&gt;2</title><path fill="none" stroke="#000" d="M142.0175,-74.3426C147.6187,-71.49 154.0061,-68.4293 160,-66 176.7903,-59.1949 196.1795,-53.0351 211.5472,-48.5325"/><polygon fill="#000" stroke="#000" points="212.813 -51.811 221.463 -45.693 210.885 -45.081 212.813 -51.811"/><text x="180" y="-69.8" fill="#000" font-family="Times,serif" font-size="14" text-anchor="middle">c:B/0.3</text></g><g id="node4" class="node"><title>3</title><ellipse cx="363" cy="-68" fill="none" stroke="#000" stroke-width="2" rx="18" ry="18"/><ellipse cx="363" cy="-68" fill="none" stroke="#000" stroke-width="2" rx="22" ry="22"/><text x="363" y="-64.3" fill="#000" font-family="Times,serif" font-size="14" text-anchor="middle">3</text></g><g id="edge4" class="edge"><title>1-&gt;3</title><path fill="none" stroke="#000" d="M144.0494,-83.9817C179.2606,-85.5815 259.4918,-87.6765 326,-78 327.926,-77.7198 329.895,-77.373 331.8719,-76.9786"/><polygon fill="#000" stroke="#000" points="332.716 -80.376 341.661 -74.697 331.127 -73.558 332.716 -80.376"/><text x="239" y="-88.8" fill="#000" font-family="Times,serif" font-size="14" text-anchor="middle">-1:-1/0.4</text></g><g id="edge5" class="edge"><title>2-&gt;3</title><path fill="none" stroke="#000" d="M256.7662,-44.8684C276.1332,-49.0855 307.5158,-55.9188 331.1608,-61.0673"/><polygon fill="#000" stroke="#000" points="330.57 -64.52 341.086 -63.228 332.059 -57.681 330.57 -64.52"/><text x="302" y="-62.8" fill="#000" font-family="Times,serif" font-size="14" text-anchor="middle">-1:-1/0.5</text></g></g></svg>