<svg xmlns="http://www.w3.org/2000/svg" xmlns:xlink="http://www.w3.org/1999/xlink" width="452" height="115pt" viewBox="0 0 339 115"><g id="graph0" class="graph" transform="scale(1 1) rotate(0) translate(4 111)"><title>WFSA</title><polygon fill="#fff" stroke="transparent" points="-4 4 -4 -111 335 -111 335 4 -4 4"/><text x="165.5" y="-7.8" fill="#000" font-family="Times,serif" font-size="14" text-anchor="middle">get_forward_scores example</text><g id="node1" class="node"><title>0</title><ellipse cx="18" cy="-65" fill="none" stroke="#000" stroke-width="2" rx="18" ry="18"/><text x="18" y="-61.3" fill="#000" font-family="Times,serif" font-size="14" text-anchor="middle">0</text></g><g id="node2" class="node"><title>1</title><ellipse cx="112" cy="-89" fill="none" stroke="#000" stroke-width="2" rx="18" ry="18"/><text x="112" y="-85.3" fill="#000" font-family="Times,serif" font-size="14" text-anchor="middle">1</text></g><g id="edge1" class="edge"><title>0-&gt;1</title><path fill="none" stroke="#000" d="M33.6967,-73.8829C39.04,-76.5584 45.1445,-79.2467 51,-81 61.404,-84.1152 73.1665,-86.0178 83.5671,-87.1797"/><polygon fill="#000" stroke="#000" points="83.515 -90.69 93.799 -88.142 84.17 -83.721 83.515 -90.69"/><text x="65" y="-89.8" fill="#000" font-family="Times,serif" font-size="14" text-anchor="middle">1/1.2</text></g><g id="edge2" class="edge"><title>0-&gt;1</title><path fill="none" stroke="#000" d="M35.6121,-60.6364C48.0869,-58.3746 65.0197,-57.0095 79,-62 83.5141,-63.6114 87.8558,-66.1349 91.8236,-69.0061"/><polygon fill="#000" stroke="#000" points="89.896 -71.954 99.834 -75.628 94.356 -66.559 89.896 -71.954"/><text x="65" y="-65.8" fill="#000" font-family="Times,serif" font-size="14" text-anchor="middle">3/0.8</text></g><g id="node3" class="node"><title>2</title><ellipse cx="206" cy="-41" fill="none" stroke="#000" stroke-width="2" rx="18" ry="18"/><text x="206" y="-37.3" fill="#000" font-family="Times,serif" font-size="14" text-anchor="middle">2</text></g><g id="edge3" class="edge"><title>0-&gt;2</title><path fill="none" stroke="#000" d="M34.9749,-58.7628C40.0773,-57.0458 45.7226,-55.3002 51,-54 94.1567,-43.3673 145.8922,-41.0332 177.3351,-40.7219"/><polygon fill="#000" stroke="#000" points="177.576 -44.221 187.563 -40.686 177.551 -37.221 177.576 -44.221"/><text x="112" y="-48.8" fill="#000" font-family="Times,serif" font-size="14" text-anchor="middle">2/0.5</text></g><g id="edge4" class="edge"><title>1-&gt;2</title><path fill="none" stroke="#000" d="M126.341,-77.9782C131.9801,-73.9218 138.6223,-69.4744 145,-66 155.8499,-60.0893 168.3964,-54.7179 179.2793,-50.4822"/><polygon fill="#000" stroke="#000" points="180.586 -53.73 188.71 -46.928 178.118 -47.18 180.586 -53.73"/><text x="159" y="-69.8" fill="#000" font-family="Times,serif" font-size="14" text-anchor="middle">5/0.1</text></g><g id="node4" class="node"><title>3</title><ellipse cx="309" cy="-68" fill="none" stroke="#000" stroke-width="2" rx="18" ry="18"/><ellipse cx="309" cy="-68" fill="none" stroke="#000" stroke-width="2" rx="22" ry="22"/><text x="309" y="-64.3" fill="#000" font-family="Times,serif" font-size="14" text-anchor="middle">3</text></g><g id="edge5" class="edge"><title>1-&gt;3</title><path fill="none" stroke="#000" d="M130.3256,-88.2975C160.1526,-86.978 220.9979,-83.5521 272,-76 273.7431,-75.7419 275.527,-75.4501 277.3239,-75.1345"/><polygon fill="#000" stroke="#000" points="278.422 -78.486 287.566 -73.135 277.081 -71.616 278.422 -78.486"/><text x="206" y="-87.8" fill="#000" font-family="Times,serif" font-size="14" text-anchor="middle">-1/0.6</text></g><g id="edge6" class="edge"><title>2-&gt;3</title><path fill="none" stroke="#000" d="M223.4725,-45.5802C238.25,-49.4539 259.7932,-55.1011 277.5606,-59.7586"/><polygon fill="#000" stroke="#000" points="276.945 -63.215 287.506 -62.366 278.72 -56.444 276.945 -63.215"/><text x="255.5" y="-60.8" fill="#000" font-family="Times,serif" font-size="14" text-anchor="middle">-1/0.4</text></g></g></svg>