<svg xmlns="http://www.w3.org/2000/svg" xmlns:xlink="http://www.w3.org/1999/xlink" width="336" height="98pt" viewBox="0 0 252 98"><g id="graph0" class="graph" transform="scale(1 1) rotate(0) translate(4 94)"><title>WFSA</title><polygon fill="#fff" stroke="transparent" points="-4 4 -4 -94 248 -94 248 4 -4 4"/><g id="node1" class="node"><title>0</title><ellipse cx="18" cy="-45" fill="none" stroke="#000" stroke-width="2" rx="18" ry="18"/><text x="18" y="-41.3" fill="#000" font-family="Times,serif" font-size="14" text-anchor="middle">0</text></g><g id="node2" class="node"><title>1</title><ellipse cx="119" cy="-72" fill="none" stroke="#000" stroke-width="2" rx="18" ry="18"/><text x="119" y="-68.3" fill="#000" font-family="Times,serif" font-size="14" text-anchor="middle">1</text></g><g id="edge1" class="edge"><title>0-&gt;1</title><path fill="none" stroke="#000" d="M35.5929,-49.703C51.0894,-53.8457 73.9083,-59.9458 91.7628,-64.7188"/><polygon fill="#000" stroke="#000" points="91.044 -68.15 101.609 -67.351 92.852 -61.387 91.044 -68.15"/><text x="68.5" y="-65.8" fill="#000" font-family="Times,serif" font-size="14" text-anchor="middle">10/0.1</text></g><g id="node3" class="node"><title>2</title><ellipse cx="119" cy="-18" fill="none" stroke="#000" stroke-width="2" rx="18" ry="18"/><text x="119" y="-14.3" fill="#000" font-family="Times,serif" font-size="14" text-anchor="middle">2</text></g><g id="edge2" class="edge"><title>0-&gt;2</title><path fill="none" stroke="#000" d="M35.4222,-39.5454C40.436,-38.0233 45.9222,-36.4032 51,-35 64.2871,-31.3283 79.1301,-27.5773 91.5503,-24.5362"/><polygon fill="#000" stroke="#000" points="92.432 -27.924 101.326 -22.166 90.783 -21.121 92.432 -27.924"/><text x="68.5" y="-38.8" fill="#000" font-family="Times,serif" font-size="14" text-anchor="middle">20/1</text></g><g id="node4" class="node"><title>3</title><ellipse cx="222" cy="-45" fill="none" stroke="#000" stroke-width="2" rx="18" ry="18"/><ellipse cx="222" cy="-45" fill="none" stroke="#000" stroke-width="2" rx="22" ry="22"/><text x="222" y="-41.3" fill="#000" font-family="Times,serif" font-size="14" text-anchor="middle">3</text></g><g id="edge3" class="edge"><title>1-&gt;3</title><path fill="none" stroke="#000" d="M136.4725,-67.4198C151.25,-63.5461 172.7932,-57.8989 190.5606,-53.2414"/><polygon fill="#000" stroke="#000" points="191.72 -56.556 200.506 -50.634 189.945 -49.785 191.72 -56.556"/><text x="168.5" y="-66.8" fill="#000" font-family="Times,serif" font-size="14" text-anchor="middle">-1/0.2</text></g><g id="edge4" class="edge"><title>2-&gt;3</title><path fill="none" stroke="#000" d="M136.4725,-22.5802C151.25,-26.4539 172.7932,-32.1011 190.5606,-36.7586"/><polygon fill="#000" stroke="#000" points="189.945 -40.215 200.506 -39.366 191.72 -33.444 189.945 -40.215"/><text x="168.5" y="-37.8" fill="#000" font-family="Times,serif" font-size="14" text-anchor="middle">-1/0.5</text></g></g></svg>