<svg xmlns="http://www.w3.org/2000/svg" xmlns:xlink="http://www.w3.org/1999/xlink" width="308" height="98pt" viewBox="0 0 231.44 98"><g id="graph0" class="graph" transform="scale(1 1) rotate(0) translate(4 94)"><title>WFSA</title><polygon fill="#fff" stroke="transparent" points="-4 4 -4 -94 227.442 -94 227.442 4 -4 4"/><g id="node1" class="node"><title>0</title><ellipse cx="18" cy="-45" fill="none" stroke="#000" stroke-width="2" rx="18" ry="18"/><text x="18" y="-40.8" fill="#000" font-family="Times,serif" font-size="14" text-anchor="middle">0</text></g><g id="node2" class="node"><title>1</title><ellipse cx="108.891" cy="-72" fill="none" stroke="#000" stroke-width="2" rx="18" ry="18"/><text x="108.891" y="-67.8" fill="#000" font-family="Times,serif" font-size="14" text-anchor="middle">1</text></g><g id="edge1" class="edge"><title>0-&gt;1</title><path fill="none" stroke="#000" d="M35.5246,-50.2059C48.6015,-54.0905 66.7142,-59.4711 81.6705,-63.914"/><polygon fill="#000" stroke="#000" points="80.837 -67.317 91.42 -66.81 82.831 -60.607 80.837 -67.317"/><text x="63.445" y="-65.2" fill="#000" font-family="Times,serif" font-size="14" text-anchor="middle">10/a</text></g><g id="node3" class="node"><title>2</title><ellipse cx="108.891" cy="-18" fill="none" stroke="#000" stroke-width="2" rx="18" ry="18"/><text x="108.891" y="-13.8" fill="#000" font-family="Times,serif" font-size="14" text-anchor="middle">2</text></g><g id="edge2" class="edge"><title>0-&gt;2</title><path fill="none" stroke="#000" d="M35.5246,-39.7941C48.6015,-35.9095 66.7142,-30.5289 81.6705,-26.086"/><polygon fill="#000" stroke="#000" points="82.831 -29.393 91.42 -23.19 80.837 -22.683 82.831 -29.393"/><text x="63.445" y="-39.2" fill="#000" font-family="Times,serif" font-size="14" text-anchor="middle">20/b</text></g><g id="node4" class="node"><title>3</title><ellipse cx="201.442" cy="-45" fill="none" stroke="#000" stroke-width="2" rx="18" ry="18"/><ellipse cx="201.442" cy="-45" fill="none" stroke="#000" stroke-width="2" rx="22" ry="22"/><text x="201.442" y="-40.8" fill="#000" font-family="Times,serif" font-size="14" text-anchor="middle">3</text></g><g id="edge3" class="edge"><title>1-&gt;3</title><path fill="none" stroke="#000" d="M126.2988,-66.9215C138.7219,-63.2973 155.7665,-58.3249 170.4821,-54.0319"/><polygon fill="#000" stroke="#000" points="171.593 -57.354 180.212 -51.193 169.632 -50.634 171.593 -57.354"/><text x="153.166" y="-65.2" fill="#000" font-family="Times,serif" font-size="14" text-anchor="middle">-1/c</text></g><g id="edge4" class="edge"><title>2-&gt;3</title><path fill="none" stroke="#000" d="M126.2988,-23.0785C138.7219,-26.7027 155.7665,-31.6751 170.4821,-35.9681"/><polygon fill="#000" stroke="#000" points="169.632 -39.366 180.212 -38.807 171.593 -32.646 169.632 -39.366"/><text x="153.166" y="-38.2" fill="#000" font-family="Times,serif" font-size="14" text-anchor="middle">-1/d</text></g></g></svg>