<svg xmlns="http://www.w3.org/2000/svg" xmlns:xlink="http://www.w3.org/1999/xlink" width="362pt" height="92" viewBox="0 0 362 69.5"><g id="graph0" class="graph" transform="scale(1 1) rotate(0) translate(4 65.495)"><title>WFSA</title><polygon fill="#fff" stroke="transparent" points="-4 4 -4 -65.495 358 -65.495 358 4 -4 4"/><g id="node1" class="node"><title>0</title><ellipse cx="18" cy="-27.495" fill="none" stroke="#000" stroke-width="2" rx="18" ry="18"/><text x="18" y="-23.795" fill="#000" font-family="Times,serif" font-size="14" text-anchor="middle">0</text></g><g id="node2" class="node"><title>1</title><ellipse cx="129" cy="-27.495" fill="none" stroke="#000" stroke-width="2" rx="18" ry="18"/><text x="129" y="-23.795" fill="#000" font-family="Times,serif" font-size="14" text-anchor="middle">1</text></g><g id="edge1" class="edge"><title>0-&gt;1</title><path fill="none" stroke="#000" d="M33.5774,-36.8294C38.9127,-39.535 45.0427,-42.127 51,-43.495 70.4926,-47.9713 76.5074,-47.9713 96,-43.495 98.6994,-42.8751 101.4343,-42.0039 104.1146,-40.9847"/><polygon fill="#000" stroke="#000" points="105.718 -44.102 113.423 -36.829 102.864 -37.71 105.718 -44.102"/><text x="73.5" y="-50.295" fill="#000" font-family="Times,serif" font-size="14" text-anchor="middle">⊔/-0.51</text></g><g id="edge2" class="edge"><title>0-&gt;1</title><path fill="none" stroke="#000" d="M36.1352,-25.5486C40.9602,-25.1123 46.1726,-24.714 51,-24.495 70.9795,-23.5887 76.0205,-23.5887 96,-24.495 97.5086,-24.5634 99.0547,-24.6494 100.6149,-24.7485"/><polygon fill="#000" stroke="#000" points="100.623 -28.26 110.865 -25.549 101.168 -21.281 100.623 -28.26"/><text x="73.5" y="-28.295" fill="#000" font-family="Times,serif" font-size="14" text-anchor="middle">O/-1.2</text></g><g id="edge3" class="edge"><title>0-&gt;1</title><path fill="none" stroke="#000" d="M31.4382,-15.3441C37.0662,-11.0378 43.9378,-6.7133 51,-4.495 70.0809,1.4983 76.9191,1.4983 96,-4.495 99.8621,-5.7081 103.6673,-7.5512 107.2432,-9.6767"/><polygon fill="#000" stroke="#000" points="105.327 -12.606 115.562 -15.344 109.268 -6.821 105.327 -12.606"/><text x="73.5" y="-8.295" fill="#000" font-family="Times,serif" font-size="14" text-anchor="middle">K/-2.3</text></g><g id="node3" class="node"><title>2</title><ellipse cx="240" cy="-27.495" fill="none" stroke="#000" stroke-width="2" rx="18" ry="18"/><text x="240" y="-23.795" fill="#000" font-family="Times,serif" font-size="14" text-anchor="middle">2</text></g><g id="edge4" class="edge"><title>1-&gt;2</title><path fill="none" stroke="#000" d="M144.5774,-36.8294C149.9127,-39.535 156.0427,-42.127 162,-43.495 181.4926,-47.9713 187.5074,-47.9713 207,-43.495 209.6994,-42.8751 212.4343,-42.0039 215.1146,-40.9847"/><polygon fill="#000" stroke="#000" points="216.718 -44.102 224.423 -36.829 213.864 -37.71 216.718 -44.102"/><text x="184.5" y="-50.295" fill="#000" font-family="Times,serif" font-size="14" text-anchor="middle">⊔/-1.39</text></g><g id="edge5" class="edge"><title>1-&gt;2</title><path fill="none" stroke="#000" d="M147.1352,-25.5486C151.9602,-25.1123 157.1726,-24.714 162,-24.495 181.9795,-23.5887 187.0205,-23.5887 207,-24.495 208.5086,-24.5634 210.0547,-24.6494 211.6149,-24.7485"/><polygon fill="#000" stroke="#000" points="211.623 -28.26 221.865 -25.549 212.167 -21.281 211.623 -28.26"/><text x="184.5" y="-28.295" fill="#000" font-family="Times,serif" font-size="14" text-anchor="middle">O/-1.9</text></g><g id="edge6" class="edge"><title>1-&gt;2</title><path fill="none" stroke="#000" d="M142.4382,-15.3441C148.0662,-11.0378 154.9378,-6.7133 162,-4.495 181.0809,1.4983 187.9191,1.4983 207,-4.495 210.8621,-5.7081 214.6673,-7.5512 218.2432,-9.6767"/><polygon fill="#000" stroke="#000" points="216.327 -12.606 226.562 -15.344 220.268 -6.821 216.327 -12.606"/><text x="184.5" y="-8.295" fill="#000" font-family="Times,serif" font-size="14" text-anchor="middle">K/-0.51</text></g><g id="node4" class="node"><title>3</title><ellipse cx="332" cy="-27.495" fill="none" stroke="#000" stroke-width="2" rx="18" ry="18"/><ellipse cx="332" cy="-27.495" fill="none" stroke="#000" stroke-width="2" rx="22" ry="22"/><text x="332" y="-23.795" fill="#000" font-family="Times,serif" font-size="14" text-anchor="middle">3</text></g><g id="edge7" class="edge"><title>2-&gt;3</title><path fill="none" stroke="#000" d="M258.1762,-27.495C270.0274,-27.495 285.8254,-27.495 299.7655,-27.495"/><polygon fill="#000" stroke="#000" points="299.967 -30.995 309.967 -27.495 299.967 -23.995 299.967 -30.995"/><text x="284" y="-31.295" fill="#000" font-family="Times,serif" font-size="14" text-anchor="middle">-1/0</text></g></g></svg>