<svg xmlns="http://www.w3.org/2000/svg" xmlns:xlink="http://www.w3.org/1999/xlink" width="412pt" height="88pt" viewBox="0 0 412.36 88"><g id="graph0" class="graph" transform="scale(1 1) rotate(0) translate(4 84)"><title>WFSA</title><polygon fill="#fff" stroke="transparent" points="-4 4 -4 -84 408.359 -84 408.359 4 -4 4"/><g id="node1" class="node"><title>0</title><ellipse cx="18" cy="-40" fill="none" stroke="#000" stroke-width="2" rx="18" ry="18"/><text x="18" y="-35.8" fill="#000" font-family="Times,serif" font-size="14" text-anchor="middle">0</text></g><g id="node2" class="node"><title>1</title><ellipse cx="108.09" cy="-62" fill="none" stroke="#000" stroke-width="2" rx="18" ry="18"/><text x="108.09" y="-57.8" fill="#000" font-family="Times,serif" font-size="14" text-anchor="middle">1</text></g><g id="edge1" class="edge"><title>0-&gt;1</title><path fill="none" stroke="#000" d="M33.1801,-50.0537C38.5872,-53.1453 44.8619,-56.204 51,-58 60.2148,-60.6962 70.6074,-61.9269 79.9756,-62.4142"/><polygon fill="#000" stroke="#000" points="79.909 -65.914 90 -62.687 80.099 -58.916 79.909 -65.914"/><text x="63.045" y="-66.2" fill="#000" font-family="Times,serif" font-size="14" text-anchor="middle">arc0</text></g><g id="edge2" class="edge"><title>0-&gt;1</title><path fill="none" stroke="#000" d="M35.6893,-35.8714C47.2015,-33.9682 62.3828,-32.9575 75.0898,-37.2 79.2195,-38.5788 83.2475,-40.6998 86.9896,-43.133"/><polygon fill="#000" stroke="#000" points="85.002 -46.017 95.115 -49.175 89.179 -40.4 85.002 -46.017"/><text x="63.045" y="-41.2" fill="#000" font-family="Times,serif" font-size="14" text-anchor="middle">arc1</text></g><g id="node3" class="node"><title>3</title><ellipse cx="288.269" cy="-18" fill="none" stroke="#000" stroke-width="2" rx="18" ry="18"/><text x="288.269" y="-13.8" fill="#000" font-family="Times,serif" font-size="14" text-anchor="middle">3</text></g><g id="edge3" class="edge"><title>0-&gt;3</title><path fill="none" stroke="#000" d="M35.2772,-33.9C40.2887,-32.3677 45.81,-30.9036 51,-30 125.7022,-16.9935 215.4754,-16.4792 260.1487,-17.2226"/><polygon fill="#000" stroke="#000" points="260.177 -20.724 270.245 -17.426 260.318 -13.725 260.177 -20.724"/><text x="153.135" y="-23.2" fill="#000" font-family="Times,serif" font-size="14" text-anchor="middle">arc2</text></g><g id="node4" class="node"><title>2</title><ellipse cx="198.18" cy="-62" fill="none" stroke="#000" stroke-width="2" rx="18" ry="18"/><text x="198.18" y="-57.8" fill="#000" font-family="Times,serif" font-size="14" text-anchor="middle">2</text></g><g id="edge4" class="edge"><title>1-&gt;2</title><path fill="none" stroke="#000" d="M126.3208,-62C138.7761,-62 155.5318,-62 169.7302,-62"/><polygon fill="#000" stroke="#000" points="169.976 -65.5 179.976 -62 169.976 -58.5 169.976 -65.5"/><text x="153.135" y="-66.2" fill="#000" font-family="Times,serif" font-size="14" text-anchor="middle">arc3</text></g><g id="node5" class="node"><title>4</title><ellipse cx="382.359" cy="-45" fill="none" stroke="#000" stroke-width="2" rx="18" ry="18"/><ellipse cx="382.359" cy="-45" fill="none" stroke="#000" stroke-width="2" rx="22" ry="22"/><text x="382.359" y="-40.8" fill="#000" font-family="Times,serif" font-size="14" text-anchor="middle">4</text></g><g id="edge7" class="edge"><title>3-&gt;4</title><path fill="none" stroke="#000" d="M305.967,-23.0785C318.6831,-26.7275 336.1622,-31.7433 351.1919,-36.0562"/><polygon fill="#000" stroke="#000" points="350.54 -39.51 361.117 -38.904 352.471 -32.782 350.54 -39.51"/><text x="333.314" y="-37.2" fill="#000" font-family="Times,serif" font-size="14" text-anchor="middle">arc6</text></g><g id="edge5" class="edge"><title>2-&gt;3</title><path fill="none" stroke="#000" d="M213.2954,-51.6869C218.8012,-48.1427 225.1546,-44.2924 231.1796,-41.2 240.7869,-36.269 251.6935,-31.6197 261.3811,-27.7966"/><polygon fill="#000" stroke="#000" points="262.846 -30.983 270.93 -24.134 260.34 -24.448 262.846 -30.983"/><text x="243.225" y="-45.2" fill="#000" font-family="Times,serif" font-size="14" text-anchor="middle">arc5</text></g><g id="edge6" class="edge"><title>2-&gt;4</title><path fill="none" stroke="#000" d="M216.414,-62.0848C244.333,-61.9727 299.2845,-60.7966 345.3592,-54 347.1128,-53.7413 348.9049,-53.4381 350.7083,-53.1025"/><polygon fill="#000" stroke="#000" points="351.921 -56.422 360.969 -50.911 350.459 -49.577 351.921 -56.422"/><text x="288.269" y="-64.2" fill="#000" font-family="Times,serif" font-size="14" text-anchor="middle">arc4</text></g></g></svg>