<svg xmlns="http://www.w3.org/2000/svg" xmlns:xlink="http://www.w3.org/1999/xlink" width="329pt" height="53pt" viewBox="0 0 329.27 53.03"><g id="graph0" class="graph" transform="scale(1 1) rotate(0) translate(4 49.0284)"><title>WFSA</title><polygon fill="#fff" stroke="transparent" points="-4 4 -4 -49.028 325.269 -49.028 325.269 4 -4 4"/><g id="node1" class="node"><title>0</title><ellipse cx="18" cy="-23.028" fill="none" stroke="#000" stroke-width="2" rx="18" ry="18"/><text x="18" y="-18.828" fill="#000" font-family="Times,serif" font-size="14" text-anchor="middle">0</text></g><g id="node2" class="node"><title>1</title><ellipse cx="108.09" cy="-23.028" fill="none" stroke="#000" stroke-width="2" rx="18" ry="18"/><text x="108.09" y="-18.828" fill="#000" font-family="Times,serif" font-size="14" text-anchor="middle">1</text></g><g id="edge1" class="edge"><title>0-&gt;1</title><path fill="none" stroke="#000" d="M36.231,-23.0284C48.6863,-23.0284 65.442,-23.0284 79.6404,-23.0284"/><polygon fill="#000" stroke="#000" points="79.886 -26.529 89.886 -23.028 79.886 -19.529 79.886 -26.529"/><text x="63.045" y="-27.228" fill="#000" font-family="Times,serif" font-size="14" text-anchor="middle">arc7</text></g><g id="node3" class="node"><title>2</title><ellipse cx="198.18" cy="-23.028" fill="none" stroke="#000" stroke-width="2" rx="18" ry="18"/><text x="198.18" y="-18.828" fill="#000" font-family="Times,serif" font-size="14" text-anchor="middle">2</text></g><g id="edge2" class="edge"><title>1-&gt;2</title><path fill="none" stroke="#000" d="M126.3208,-23.0284C138.7761,-23.0284 155.5318,-23.0284 169.7302,-23.0284"/><polygon fill="#000" stroke="#000" points="169.976 -26.529 179.976 -23.028 169.976 -19.529 169.976 -26.529"/><text x="153.135" y="-27.228" fill="#000" font-family="Times,serif" font-size="14" text-anchor="middle">arc8</text></g><g id="edge3" class="edge"><title>1-&gt;2</title><path fill="none" stroke="#000" d="M122.3433,-11.5843C127.8666,-7.8368 134.4534,-4.1454 141.0898,-2.2284 151.3759,.7428 154.8935,.7428 165.1796,-2.2284 168.6015,-3.2168 172.0102,-4.677 175.2667,-6.3735"/><polygon fill="#000" stroke="#000" points="173.553 -9.427 183.926 -11.584 177.162 -3.429 173.553 -9.427"/><text x="153.135" y="-6.228" fill="#000" font-family="Times,serif" font-size="14" text-anchor="middle">arc9</text></g><g id="node4" class="node"><title>3</title><ellipse cx="299.269" cy="-23.028" fill="none" stroke="#000" stroke-width="2" rx="18" ry="18"/><ellipse cx="299.269" cy="-23.028" fill="none" stroke="#000" stroke-width="2" rx="22" ry="22"/><text x="299.269" y="-18.828" fill="#000" font-family="Times,serif" font-size="14" text-anchor="middle">3</text></g><g id="edge4" class="edge"><title>2-&gt;3</title><path fill="none" stroke="#000" d="M216.2524,-23.0284C230.2283,-23.0284 249.9483,-23.0284 266.6616,-23.0284"/><polygon fill="#000" stroke="#000" points="267.12 -26.529 277.12 -23.028 267.12 -19.529 267.12 -26.529"/><text x="246.725" y="-27.228" fill="#000" font-family="Times,serif" font-size="14" text-anchor="middle">arc10</text></g></g></svg>