<svg xmlns="http://www.w3.org/2000/svg" xmlns:xlink="http://www.w3.org/1999/xlink" width="336" height="52pt" viewBox="0 0 252 52"><g id="graph0" class="graph" transform="scale(1 1) rotate(0) translate(4 48)"><title>WFSA</title><polygon fill="#fff" stroke="transparent" points="-4 4 -4 -48 248 -48 248 4 -4 4"/><g id="node1" class="node"><title>0</title><ellipse cx="18" cy="-22" fill="none" stroke="#000" stroke-width="2" rx="18" ry="18"/><text x="18" y="-18.3" fill="#000" font-family="Times,serif" font-size="14" text-anchor="middle">0</text></g><g id="node2" class="node"><title>1</title><ellipse cx="119" cy="-22" fill="none" stroke="#000" stroke-width="2" rx="18" ry="18"/><text x="119" y="-18.3" fill="#000" font-family="Times,serif" font-size="14" text-anchor="middle">1</text></g><g id="edge1" class="edge"><title>0-&gt;1</title><path fill="none" stroke="#000" d="M36.0568,-22C51.187,-22 73.0552,-22 90.539,-22"/><polygon fill="#000" stroke="#000" points="90.759 -25.5 100.759 -22 90.759 -18.5 90.759 -25.5"/><text x="68.5" y="-25.8" fill="#000" font-family="Times,serif" font-size="14" text-anchor="middle">10/0.1</text></g><g id="node3" class="node"><title>2</title><ellipse cx="222" cy="-22" fill="none" stroke="#000" stroke-width="2" rx="18" ry="18"/><ellipse cx="222" cy="-22" fill="none" stroke="#000" stroke-width="2" rx="22" ry="22"/><text x="222" y="-18.3" fill="#000" font-family="Times,serif" font-size="14" text-anchor="middle">2</text></g><g id="edge2" class="edge"><title>1-&gt;2</title><path fill="none" stroke="#000" d="M137.4143,-22C151.8858,-22 172.4016,-22 189.604,-22"/><polygon fill="#000" stroke="#000" points="189.803 -25.5 199.803 -22 189.803 -18.5 189.803 -25.5"/><text x="168.5" y="-25.8" fill="#000" font-family="Times,serif" font-size="14" text-anchor="middle">-1/0.2</text></g></g></svg>