<svg xmlns="http://www.w3.org/2000/svg" xmlns:xlink="http://www.w3.org/1999/xlink" width="388" height="52pt" viewBox="0 0 291 52"><g id="graph0" class="graph" transform="scale(1 1) rotate(0) translate(4 48)"><title>WFST</title><polygon fill="#fff" stroke="transparent" points="-4 4 -4 -48 287 -48 287 4 -4 4"/><g id="node1" class="node"><title>0</title><ellipse cx="18" cy="-22" fill="none" stroke="#000" stroke-width="2" rx="18" ry="18"/><text x="18" y="-18.3" fill="#000" font-family="Times,serif" font-size="14" text-anchor="middle">0</text></g><g id="node2" class="node"><title>1</title><ellipse cx="143" cy="-22" fill="none" stroke="#000" stroke-width="2" rx="18" ry="18"/><text x="143" y="-18.3" fill="#000" font-family="Times,serif" font-size="14" text-anchor="middle">1</text></g><g id="edge1" class="edge"><title>0-&gt;1</title><path fill="none" stroke="#000" d="M36.1761,-22C56.7277,-22 90.4528,-22 114.5107,-22"/><polygon fill="#000" stroke="#000" points="114.802 -25.5 124.802 -22 114.802 -18.5 114.802 -25.5"/><text x="80.5" y="-25.8" fill="#000" font-family="Times,serif" font-size="14" text-anchor="middle">10:100/0.1</text></g><g id="node3" class="node"><title>2</title><ellipse cx="261" cy="-22" fill="none" stroke="#000" stroke-width="2" rx="18" ry="18"/><ellipse cx="261" cy="-22" fill="none" stroke="#000" stroke-width="2" rx="22" ry="22"/><text x="261" y="-18.3" fill="#000" font-family="Times,serif" font-size="14" text-anchor="middle">2</text></g><g id="edge2" class="edge"><title>1-&gt;2</title><path fill="none" stroke="#000" d="M161.1789,-22C179.1794,-22 207.1232,-22 228.8719,-22"/><polygon fill="#000" stroke="#000" points="228.98 -25.5 238.98 -22 228.98 -18.5 228.98 -25.5"/><text x="200" y="-25.8" fill="#000" font-family="Times,serif" font-size="14" text-anchor="middle">-1:-1/0.2</text></g></g></svg>